{"title":"Shanghai.Knights.2003.SWESUB.DVDRip.XviD.AC3-Zen_Bud","uid":5764758,"size":1471614434,"categoryP":"video","categoryS":"movies","magnet":"?xt=urn:btih:0dced4d416d2568650d3842c728a1024e2522319&amp;dn=Shanghai.Knights.2003.SWESUB.DVDRip.XviD.AC3-Zen_Bud&amp;tr=udp%3A%2F%2Ftracker.openbittorrent.com%3A80&amp;tr=udp%3A%2F%2Fopen.demonii.com%3A1337&amp;tr=udp%3A%2F%2Ftracker.coppersurfer.tk%3A6969&amp;tr=udp%3A%2F%2Fexodus.desync.com%3A6969","seeders":0,"leechers":1,"uploader":"Zen_Bud","files":-1,"time":1281860579,"description":"General\nComplete name                    : Shanghai.Knights.2003.avi\nFormat                           : AVI\nFile size                        : 1.37 GiB\nDuration                         : 1h 54mn\nOverall bit rate                 : 1 716 Kbps\n\nVideo\n\nFormat                           : MPEG-4 Visual\nCodec ID/Hint                    : XviD\nDuration                         : 1h 54mn\nBit rate                         : 1 257 Kbps\nWidth                            : 720 pixels\nHeight                           : 496 pixels\nDisplay aspect ratio             : 2.065\nStream size                      : 1.00 GiB (73%)\nWriting library                  : XviD 1.1.2 (UTC 2006-11-01)\n\nAudio\n\nFormat                           : AC-3\nDuration                         : 1h 54mn\nBit rate                         : 448 Kbps\nChannel(s)                       : 6 channels\nChannel positions                : Front: L C R, Side: L R, LFE\nSampling rate                    : 48.0 KHz\nStream size                      : 366 MiB (26%)\n\n\n","torrent":{"xt":"urn:btih:0dced4d416d2568650d3842c728a1024e2522319","amp;dn":"Shanghai.Knights.2003.SWESUB.DVDRip.XviD.AC3-Zen_Bud","amp;tr":["udp%3A%2F%2Ftracker.openbittorrent.com%3A80","udp%3A%2F%2Fopen.demonii.com%3A1337","udp%3A%2F%2Ftracker.coppersurfer.tk%3A6969","udp%3A%2F%2Fexodus.desync.com%3A6969"],"infoHash":"0dced4d416d2568650d3842c728a1024e2522319","infoHashBuffer":{"type":"Buffer","data":[13,206,212,212,22,210,86,134,80,211,132,44,114,138,16,36,226,82,35,25]},"announce":[],"urlList":[]}}